<svg width="28" height="28" viewBox="0 0 28 28" fill="none" xmlns="http://www.w3.org/2000/svg">
<rect width="27.75" height="27.75" rx="3" fill="#870F0F"/>
<path fill-rule="evenodd" clip-rule="evenodd" d="M16.0267 5C16.3998 5.0001 16.7634 5.11906 17.0661 5.34003C17.3687 5.561 17.595 5.87278 17.7129 6.2312L18.1956 7.7H21.1111C21.3469 7.7 21.573 7.79482 21.7397 7.9636C21.9064 8.13239 22 8.3613 22 8.6C22 8.83869 21.9064 9.06761 21.7397 9.2364C21.573 9.40518 21.3469 9.5 21.1111 9.5L21.1084 9.5639L20.3378 20.4926C20.2897 21.1735 19.9886 21.8108 19.4951 22.276C19.0017 22.7412 18.3525 22.9999 17.6782 23H10.3218C9.64752 22.9999 8.99832 22.7412 8.50486 22.276C8.0114 21.8108 7.71032 21.1735 7.66222 20.4926L6.89156 9.563C6.88995 9.54204 6.88906 9.52102 6.88889 9.5C6.65314 9.5 6.42705 9.40518 6.26035 9.2364C6.09365 9.06761 6 8.83869 6 8.6C6 8.3613 6.09365 8.13239 6.26035 7.9636C6.42705 7.79482 6.65314 7.7 6.88889 7.7H9.80444L10.2871 6.2312C10.4051 5.87263 10.6315 5.56075 10.9343 5.33976C11.2371 5.11878 11.601 4.99991 11.9742 5H16.0267ZM11.3333 12.2C11.1156 12.2 10.9055 12.281 10.7428 12.4274C10.5801 12.5739 10.4761 12.7758 10.4507 12.9947L10.4444 13.1V18.5C10.4447 18.7294 10.5314 18.95 10.687 19.1168C10.8425 19.2836 11.0551 19.384 11.2812 19.3975C11.5074 19.4109 11.7301 19.3364 11.9039 19.1892C12.0776 19.0419 12.1892 18.8331 12.216 18.6053L12.2222 18.5V13.1C12.2222 12.8613 12.1286 12.6324 11.9619 12.4636C11.7952 12.2948 11.5691 12.2 11.3333 12.2ZM16.6667 12.2C16.4309 12.2 16.2048 12.2948 16.0381 12.4636C15.8714 12.6324 15.7778 12.8613 15.7778 13.1V18.5C15.7778 18.7387 15.8714 18.9676 16.0381 19.1364C16.2048 19.3052 16.4309 19.4 16.6667 19.4C16.9024 19.4 17.1285 19.3052 17.2952 19.1364C17.4619 18.9676 17.5556 18.7387 17.5556 18.5V13.1C17.5556 12.8613 17.4619 12.6324 17.2952 12.4636C17.1285 12.2948 16.9024 12.2 16.6667 12.2ZM16.0267 6.8H11.9733L11.6773 7.7H16.3227L16.0267 6.8Z" fill="white"/>
</svg>
