<svg width="37" height="37" viewBox="0 0 37 37" fill="none" xmlns="http://www.w3.org/2000/svg">
<path d="M28.2647 12.2915L17.4989 22.6523L6.73306 12.2915C6.54071 12.106 6.2825 12.0021 6.01361 12.0021C5.74473 12.0021 5.48652 12.106 5.29417 12.2915C5.20103 12.3816 5.12704 12.4891 5.07653 12.6078C5.02602 12.7264 5 12.8539 5 12.9826C5 13.1113 5.02602 13.2388 5.07653 13.3575C5.12704 13.4761 5.20103 13.5837 5.29417 13.6738L16.7471 24.6981C16.9483 24.8917 17.218 25 17.4989 25C17.7798 25 18.0495 24.8917 18.2507 24.6981L29.7036 13.6759C29.7974 13.5857 29.872 13.4779 29.9229 13.3589C29.9738 13.2398 30 13.1119 30 12.9826C30 12.8534 29.9738 12.7254 29.9229 12.6064C29.872 12.4873 29.7974 12.3795 29.7036 12.2893C29.5113 12.1038 29.2531 12 28.9842 12C28.7153 12 28.4571 12.1038 28.2647 12.2893V12.2915Z" fill="#8E8E8E"/>
</svg>
