<svg width="22" height="22" viewBox="0 0 22 22" fill="none" xmlns="http://www.w3.org/2000/svg">
<path fill-rule="evenodd" clip-rule="evenodd" d="M11 19.8C13.3339 19.8 15.5722 18.8729 17.2225 17.2225C18.8729 15.5722 19.8 13.3339 19.8 11C19.8 8.66609 18.8729 6.42778 17.2225 4.77746C15.5722 3.12714 13.3339 2.2 11 2.2C8.66609 2.2 6.42778 3.12714 4.77746 4.77746C3.12714 6.42778 2.2 8.66609 2.2 11C2.2 13.3339 3.12714 15.5722 4.77746 17.2225C6.42778 18.8729 8.66609 19.8 11 19.8ZM6.6 6.325C6.6 6.10619 6.68692 5.89635 6.84163 5.74163C6.99635 5.58692 7.20619 5.5 7.425 5.5H14.575C14.7938 5.5 15.0036 5.58692 15.1584 5.74163C15.3131 5.89635 15.4 6.10619 15.4 6.325C15.4 6.5438 15.3131 6.75364 15.1584 6.90836C15.0036 7.06308 14.7938 7.15 14.575 7.15H12.2353C12.6753 7.7 12.9866 8.3556 13.123 9.075H14.575C14.7938 9.075 15.0036 9.16192 15.1584 9.31663C15.3131 9.47135 15.4 9.68119 15.4 9.9C15.4 10.1188 15.3131 10.3286 15.1584 10.4834C15.0036 10.6381 14.7938 10.725 14.575 10.725H13.123C12.9493 11.6331 12.4941 12.4635 11.8221 13.0985C11.15 13.7334 10.2951 14.1407 9.3786 14.2626L11.308 16.192C11.4537 16.3484 11.5331 16.5552 11.5293 16.769C11.5255 16.9827 11.4389 17.1866 11.2878 17.3378C11.1366 17.4889 10.9327 17.5755 10.719 17.5793C10.5052 17.5831 10.2984 17.5037 10.142 17.358L6.842 14.058C6.72676 13.9426 6.64831 13.7957 6.61654 13.6357C6.58476 13.4758 6.6011 13.31 6.66348 13.1594C6.72586 13.0087 6.83149 12.8799 6.96703 12.7893C7.10257 12.6986 7.26193 12.6501 7.425 12.65H8.8C10.032 12.65 11.0737 11.8404 11.4246 10.725H7.425C7.20619 10.725 6.99635 10.6381 6.84163 10.4834C6.68692 10.3286 6.6 10.1188 6.6 9.9C6.6 9.68119 6.68692 9.47135 6.84163 9.31663C6.99635 9.16192 7.20619 9.075 7.425 9.075H11.4246C11.2488 8.51664 10.8995 8.02891 10.4275 7.68271C9.9555 7.33652 9.38536 7.1499 8.8 7.15H7.425C7.20619 7.15 6.99635 7.06308 6.84163 6.90836C6.68692 6.75364 6.6 6.5438 6.6 6.325Z" fill="#484848"/>
</svg>
