<svg width="19" height="19" viewBox="0 0 19 19" fill="none" xmlns="http://www.w3.org/2000/svg">
<mask id="mask0_1_173" style="mask-type:luminance" maskUnits="userSpaceOnUse" x="-1" y="-1" width="21" height="21">
<path d="M14.5222 6.00511C15.027 6.72817 15.3686 7.55232 15.5233 8.42048H17.4173V10.5794H15.5233C15.3686 11.4475 15.027 12.2717 14.5222 12.9947L15.8621 14.3346L14.3354 15.8614L12.9955 14.5215C12.2724 15.0263 11.4482 15.3678 10.5801 15.5225V17.4166H8.42121V15.5225C7.55305 15.3678 6.7289 15.0263 6.00584 14.5215L4.66594 15.8614L3.13921 14.3346L4.47911 12.9947C3.97432 12.2717 3.63274 11.4475 3.47805 10.5794H1.58398V8.42048H3.47805C3.63274 7.55232 3.97432 6.72817 4.47911 6.00511L3.13921 4.66521L4.66594 3.13848L6.00584 4.47838C6.7289 3.97359 7.55305 3.63201 8.42121 3.47731V1.58325H10.5801V3.47731C11.4482 3.63201 12.2724 3.97359 12.9955 4.47838L14.3354 3.13848L15.8621 4.66521L14.5222 6.00511Z" fill="white" stroke="white" stroke-width="4" stroke-linejoin="round"/>
<path d="M9.50065 11.4791C10.0256 11.4791 10.529 11.2706 10.9001 10.8994C11.2713 10.5282 11.4798 10.0248 11.4798 9.49992C11.4798 8.97501 11.2713 8.4716 10.9001 8.10044C10.529 7.72927 10.0256 7.52075 9.50065 7.52075C8.97574 7.52075 8.47233 7.72927 8.10117 8.10044C7.73 8.4716 7.52148 8.97501 7.52148 9.49992C7.52148 10.0248 7.73 10.5282 8.10117 10.8994C8.47233 11.2706 8.97574 11.4791 9.50065 11.4791Z" fill="black" stroke="black" stroke-width="4" stroke-linejoin="round"/>
</mask>
<g mask="url(#mask0_1_173)">
<path d="M0.000648499 -8.15392e-05H19.0006V18.9999H0.000648499V-8.15392e-05Z" fill="#484848"/>
</g>
</svg>
