<svg width="15" height="15" viewBox="0 0 15 15" fill="none" xmlns="http://www.w3.org/2000/svg">
<path d="M10 5V3.125H5V5H3.75V1.875H11.25V5H10ZM11.25 7.8125C11.4271 7.8125 11.5756 7.7525 11.6956 7.6325C11.8156 7.5125 11.8754 7.36417 11.875 7.1875C11.875 7.01042 11.815 6.86187 11.695 6.74187C11.575 6.62187 11.4267 6.56208 11.25 6.5625C11.0729 6.5625 10.9244 6.6225 10.8044 6.7425C10.6844 6.8625 10.6246 7.01083 10.625 7.1875C10.625 7.36458 10.685 7.51313 10.805 7.63313C10.925 7.75313 11.0733 7.81292 11.25 7.8125ZM10 11.875V9.375H5V11.875H10ZM11.25 13.125H3.75V10.625H1.25V6.875C1.25 6.34375 1.43229 5.89833 1.79688 5.53875C2.16146 5.17917 2.60417 4.99958 3.125 5H11.875C12.4062 5 12.8517 5.17979 13.2113 5.53937C13.5708 5.89896 13.7504 6.34417 13.75 6.875V10.625H11.25V13.125ZM12.5 9.375V6.875C12.5 6.69792 12.44 6.54937 12.32 6.42937C12.2 6.30937 12.0517 6.24958 11.875 6.25H3.125C2.94792 6.25 2.79938 6.31 2.67938 6.43C2.55938 6.55 2.49958 6.69833 2.5 6.875V9.375H3.75V8.125H11.25V9.375H12.5Z" fill="#484848"/>
</svg>
