<svg width="37" height="37" viewBox="0 0 37 37" fill="none" xmlns="http://www.w3.org/2000/svg">
<path d="M29.2917 4.625C30.1094 4.625 30.8937 4.94985 31.4719 5.52809C32.0501 6.10632 32.375 6.89058 32.375 7.70833V29.2917C32.375 30.1094 32.0501 30.8937 31.4719 31.4719C30.8937 32.0501 30.1094 32.375 29.2917 32.375H7.70833C6.89058 32.375 6.10632 32.0501 5.52809 31.4719C4.94985 30.8937 4.625 30.1094 4.625 29.2917V7.70833C4.625 6.89058 4.94985 6.10632 5.52809 5.52809C6.10632 4.94985 6.89058 4.625 7.70833 4.625H29.2917ZM25.7458 14.4146C26.085 14.0908 26.085 13.5512 25.7458 13.2275L23.7725 11.2542C23.6959 11.1739 23.6038 11.1099 23.5018 11.0662C23.3998 11.0225 23.2899 11 23.179 11C23.068 11 22.9581 11.0225 22.8561 11.0662C22.7541 11.1099 22.662 11.1739 22.5854 11.2542L21.0437 12.7958L24.2042 15.9563L25.7458 14.4146ZM10.7917 23.0325V26.2083H13.9675L23.31 16.8658L20.1342 13.69L10.7917 23.0325Z" fill="#4A7CB8"/>
</svg>
