<svg width="44" height="44" viewBox="0 0 44 44" fill="none" xmlns="http://www.w3.org/2000/svg">
<path fill-rule="evenodd" clip-rule="evenodd" d="M29.3333 16.5C29.3333 18.4449 28.5607 20.3101 27.1854 21.6854C25.8102 23.0607 23.9449 23.8333 22 23.8333C20.0551 23.8333 18.1898 23.0607 16.8145 21.6854C15.4393 20.3101 14.6667 18.4449 14.6667 16.5C14.6667 14.555 15.4393 12.6898 16.8145 11.3145C18.1898 9.93924 20.0551 9.16663 22 9.16663C23.9449 9.16663 25.8102 9.93924 27.1854 11.3145C28.5607 12.6898 29.3333 14.555 29.3333 16.5ZM25.6667 16.5C25.6667 17.4724 25.2803 18.405 24.5927 19.0927C23.9051 19.7803 22.9725 20.1666 22 20.1666C21.0275 20.1666 20.0949 19.7803 19.4073 19.0927C18.7196 18.405 18.3333 17.4724 18.3333 16.5C18.3333 15.5275 18.7196 14.5949 19.4073 13.9072C20.0949 13.2196 21.0275 12.8333 22 12.8333C22.9725 12.8333 23.9051 13.2196 24.5927 13.9072C25.2803 14.5949 25.6667 15.5275 25.6667 16.5Z" fill="#4F617D"/>
<path fill-rule="evenodd" clip-rule="evenodd" d="M22 1.83331C10.8625 1.83331 1.83333 10.8625 1.83333 22C1.83333 33.1375 10.8625 42.1666 22 42.1666C33.1375 42.1666 42.1667 33.1375 42.1667 22C42.1667 10.8625 33.1375 1.83331 22 1.83331ZM5.5 22C5.5 25.8316 6.80716 29.359 8.998 32.1603C10.5366 30.1398 12.5215 28.5024 14.7976 27.3759C17.0738 26.2494 19.5795 25.6644 22.1192 25.6666C24.6259 25.6643 27.1002 26.2341 29.3534 27.3327C31.6066 28.4314 33.5793 30.0298 35.1212 32.0063C36.7097 29.9229 37.7792 27.4912 38.2413 24.9124C38.7034 22.3336 38.5448 19.6818 37.7786 17.1765C37.0124 14.6711 35.6606 12.3842 33.8351 10.505C32.0095 8.62586 29.7628 7.20839 27.2807 6.36991C24.7986 5.53144 22.1525 5.29606 19.5614 5.68326C16.9703 6.07047 14.5086 7.06911 12.3801 8.59658C10.2515 10.124 8.51732 12.1364 7.32092 14.4672C6.12452 16.7979 5.50033 19.3801 5.5 22ZM22 38.5C18.2122 38.5057 14.5388 37.2026 11.6013 34.8113C12.7837 33.1187 14.3574 31.7367 16.1887 30.7829C18.0199 29.8291 20.0544 29.3318 22.1192 29.3333C24.1581 29.3317 26.1681 29.8165 27.982 30.7476C29.796 31.6787 31.3617 33.0291 32.549 34.6866C29.5887 37.1556 25.8547 38.5054 22 38.5Z" fill="#4F617D"/>
</svg>
