<svg width="16" height="16" viewBox="0 0 16 16" fill="none" xmlns="http://www.w3.org/2000/svg">
<path fill-rule="evenodd" clip-rule="evenodd" d="M15.528 2.97287C15.6672 3.02843 15.7866 3.12443 15.8707 3.24849C15.9549 3.37255 15.9999 3.51897 16 3.66887V12.3309C15.9999 12.4808 15.9549 12.6272 15.8707 12.7512C15.7866 12.8753 15.6672 12.9713 15.528 13.0269L8.278 15.9269C8.09922 15.9984 7.89978 15.9984 7.721 15.9269L0.471 13.0269C0.331969 12.9712 0.212805 12.8751 0.128861 12.751C0.0449156 12.627 3.48599e-05 12.4806 0 12.3309L0 3.66887C3.48599e-05 3.51909 0.0449156 3.37275 0.128861 3.2487C0.212805 3.12466 0.331969 3.02859 0.471 2.97287L7.443 0.183868L7.447 0.182868L7.721 0.0728684C7.90008 0.00110115 8.09992 0.00110115 8.279 0.0728684L8.553 0.182868L8.557 0.183868L15.528 2.97287ZM14.154 3.49987L8 5.96187L1.846 3.49987L1 3.83887V4.23887L7.5 6.83887V14.7609L8 14.9609L8.5 14.7609V6.83987L15 4.23987V3.83987L14.154 3.49987Z" fill="#484848"/>
</svg>
