<svg width="14" height="18" viewBox="0 0 14 18" fill="none" xmlns="http://www.w3.org/2000/svg">
<path d="M14 8.37077V15.926C14 16.3434 13.8397 16.7438 13.5543 17.039C13.2689 17.3342 12.8819 17.5 12.4783 17.5H1.52174C1.11815 17.5 0.731089 17.3342 0.445707 17.039C0.160326 16.7438 0 16.3434 0 15.926V8.37077C0 7.95332 0.160326 7.55296 0.445707 7.25778C0.731089 6.9626 1.11815 6.79677 1.52174 6.79677H3.34783C3.58998 6.79677 3.82222 6.89626 3.99345 7.07337C4.16467 7.25048 4.26087 7.4907 4.26087 7.74117C4.26087 7.99164 4.16467 8.23185 3.99345 8.40896C3.82222 8.58607 3.58998 8.68557 3.34783 8.68557H1.82609V15.6112H12.1739V8.68557H10.6522C10.41 8.68557 10.1778 8.58607 10.0066 8.40896C9.83533 8.23185 9.73913 7.99164 9.73913 7.74117C9.73913 7.4907 9.83533 7.25048 10.0066 7.07337C10.1778 6.89626 10.41 6.79677 10.6522 6.79677H12.4783C12.8819 6.79677 13.2689 6.9626 13.5543 7.25778C13.8397 7.55296 14 7.95332 14 8.37077ZM4.6025 5.26132L6.08696 3.72746V10.2596C6.08696 10.51 6.18315 10.7503 6.35438 10.9274C6.52561 11.1045 6.75785 11.204 7 11.204C7.24215 11.204 7.47439 11.1045 7.64562 10.9274C7.81685 10.7503 7.91304 10.51 7.91304 10.2596V3.72746L9.3975 5.26368C9.48243 5.35153 9.58326 5.42122 9.69423 5.46876C9.80519 5.5163 9.92413 5.54077 10.0442 5.54077C10.1643 5.54077 10.2833 5.5163 10.3943 5.46876C10.5052 5.42122 10.606 5.35153 10.691 5.26368C10.7759 5.17584 10.8433 5.07155 10.8892 4.95677C10.9352 4.84199 10.9589 4.71897 10.9589 4.59473C10.9589 4.4705 10.9352 4.34748 10.8892 4.2327C10.8433 4.11792 10.7759 4.01363 10.691 3.92578L7.6475 0.77777C7.56267 0.689726 7.46188 0.619868 7.3509 0.572202C7.23992 0.524536 7.12093 0.5 7.00076 0.5C6.88059 0.5 6.7616 0.524536 6.65062 0.572202C6.53964 0.619868 6.43885 0.689726 6.35402 0.77777L3.31054 3.92578C3.22561 4.01363 3.15824 4.11792 3.11228 4.2327C3.06631 4.34748 3.04265 4.4705 3.04265 4.59473C3.04265 4.84564 3.13902 5.08627 3.31054 5.26368C3.48207 5.4411 3.71471 5.54077 3.95728 5.54077C4.19986 5.54077 4.4325 5.4411 4.60402 5.26368L4.6025 5.26132Z" fill="#484848"/>
</svg>
