<svg width="11" height="13" viewBox="0 0 11 13" fill="none" xmlns="http://www.w3.org/2000/svg">
<path d="M11 6.01882V11.7963C11 12.1156 10.874 12.4217 10.6498 12.6475C10.4256 12.8732 10.1215 13 9.80435 13H1.19565C0.878546 13 0.574427 12.8732 0.350198 12.6475C0.12597 12.4217 0 12.1156 0 11.7963V6.01882C0 5.6996 0.12597 5.39344 0.350198 5.16771C0.574427 4.94199 0.878546 4.81517 1.19565 4.81517H2.63043C2.8207 4.81517 3.00317 4.89126 3.13771 5.0267C3.27224 5.16214 3.34783 5.34583 3.34783 5.53736C3.34783 5.7289 3.27224 5.91259 3.13771 6.04803C3.00317 6.18347 2.8207 6.25955 2.63043 6.25955H1.43478V11.5556H9.56522V6.25955H8.36957C8.1793 6.25955 7.99683 6.18347 7.86229 6.04803C7.72776 5.91259 7.65217 5.7289 7.65217 5.53736C7.65217 5.34583 7.72776 5.16214 7.86229 5.0267C7.99683 4.89126 8.1793 4.81517 8.36957 4.81517H9.80435C10.1215 4.81517 10.4256 4.94199 10.6498 5.16771C10.874 5.39344 11 5.6996 11 6.01882ZM3.61625 3.64101L4.78261 2.46805V7.46321C4.78261 7.65474 4.85819 7.83843 4.99273 7.97387C5.12726 8.10931 5.30974 8.1854 5.5 8.1854C5.69026 8.1854 5.87274 8.10931 6.00727 7.97387C6.14181 7.83843 6.21739 7.65474 6.21739 7.46321V2.46805L7.38375 3.64282C7.45048 3.71 7.5297 3.76328 7.61689 3.79964C7.70408 3.836 7.79753 3.85471 7.8919 3.85471C7.98627 3.85471 8.07972 3.836 8.16691 3.79964C8.2541 3.76328 8.33332 3.71 8.40005 3.64282C8.46679 3.57564 8.51972 3.49589 8.55583 3.40812C8.59195 3.32034 8.61054 3.22627 8.61054 3.13127C8.61054 3.03626 8.59195 2.94219 8.55583 2.85442C8.51972 2.76664 8.46679 2.68689 8.40005 2.61971L6.00875 0.212412C5.9421 0.145085 5.86291 0.0916641 5.77571 0.0552136C5.68851 0.0187632 5.59502 0 5.5006 0C5.40618 0 5.31269 0.0187632 5.22549 0.0552136C5.13829 0.0916641 5.05909 0.145085 4.99245 0.212412L2.60114 2.61971C2.53441 2.68689 2.48148 2.76664 2.44536 2.85442C2.40925 2.94219 2.39066 3.03626 2.39066 3.13127C2.39066 3.32313 2.46637 3.50715 2.60114 3.64282C2.73591 3.77849 2.9187 3.85471 3.10929 3.85471C3.29989 3.85471 3.48268 3.77849 3.61745 3.64282L3.61625 3.64101Z" fill="#484848"/>
</svg>
