<svg width="26" height="26" viewBox="0 0 26 26" fill="none" xmlns="http://www.w3.org/2000/svg">
<path d="M0 7.80001C0 6.37001 1.17 5.20001 2.6 5.20001H6.5L9.1 2.60001H16.9L19.5 5.20001H23.4C24.0896 5.20001 24.7509 5.47393 25.2385 5.96153C25.7261 6.44912 26 7.11044 26 7.80001V20.8C26 21.4896 25.7261 22.1509 25.2385 22.6385C24.7509 23.1261 24.0896 23.4 23.4 23.4H2.6C1.91044 23.4 1.24912 23.1261 0.761522 22.6385C0.273928 22.1509 0 21.4896 0 20.8V7.80001ZM13 20.8C14.7239 20.8 16.3772 20.1152 17.5962 18.8962C18.8152 17.6772 19.5 16.0239 19.5 14.3C19.5 12.5761 18.8152 10.9228 17.5962 9.70381C16.3772 8.48483 14.7239 7.80001 13 7.80001C11.2761 7.80001 9.62279 8.48483 8.40381 9.70381C7.18482 10.9228 6.5 12.5761 6.5 14.3C6.5 16.0239 7.18482 17.6772 8.40381 18.8962C9.62279 20.1152 11.2761 20.8 13 20.8ZM13 18.2C12.4878 18.2 11.9807 18.0991 11.5075 17.9031C11.0344 17.7071 10.6044 17.4199 10.2423 17.0577C9.88013 16.6956 9.59286 16.2656 9.39687 15.7925C9.20088 15.3193 9.1 14.8122 9.1 14.3C9.1 13.7879 9.20088 13.2807 9.39687 12.8075C9.59286 12.3344 9.88013 11.9044 10.2423 11.5423C10.6044 11.1801 11.0344 10.8929 11.5075 10.6969C11.9807 10.5009 12.4878 10.4 13 10.4C14.0343 10.4 15.0263 10.8109 15.7577 11.5423C16.4891 12.2737 16.9 13.2657 16.9 14.3C16.9 15.3343 16.4891 16.3263 15.7577 17.0577C15.0263 17.7891 14.0343 18.2 13 18.2Z" fill="#4F617D"/>
</svg>
